<?xml version="1.0" encoding="UTF-8" standalone="no"?> <svg xmlns="http://www.w3.org/2000/svg" width="15.5" height="15.5" viewBox="0 0 15.5 15.5">
  <path id="face-grin-stars-emoji" d="M7.75,8a7.75,7.75,0,1,0,7.75,7.75A7.749,7.749,0,0,0,7.75,8Zm0,14A6.25,6.25,0,1,1,14,15.75,6.256,6.256,0,0,1,7.75,22Zm3.3-4.731a11.6,11.6,0,0,1-3.3.409,11.614,11.614,0,0,1-3.3-.409.429.429,0,0,0-.553.478c.247,1.475,2.228,2.5,3.853,2.5s3.6-1.028,3.853-2.5a.43.43,0,0,0-.553-.478Zm-7.122-1.8a.234.234,0,0,0,.344.247l.978-.509.978.509a.234.234,0,0,0,.344-.247l-.187-1.091.794-.769a.244.244,0,0,0-.134-.412l-1.091-.156-.484-.987a.241.241,0,0,0-.434,0l-.484.987L3.459,13.2a.243.243,0,0,0-.134.412l.794.769-.191,1.091ZM12.044,13.2l-1.091-.156-.484-.987a.241.241,0,0,0-.434,0l-.484.987L8.459,13.2a.243.243,0,0,0-.134.412l.794.769-.187,1.091a.234.234,0,0,0,.344.247l.978-.509.978.509a.234.234,0,0,0,.344-.247l-.187-1.091.794-.769A.245.245,0,0,0,12.044,13.2Z" transform="translate(0 -8)"/>
</svg>
